<?xml version="1.0" encoding="windows-1252"?>
<!-- Generator: Adobe Illustrator 19.0.0, SVG Export Plug-In . SVG Version: 6.00 Build 0)  -->
<svg version="1.1" id="Capa_1" xmlns="http://www.w3.org/2000/svg" xmlns:xlink="http://www.w3.org/1999/xlink" x="0px" y="0px" viewBox="0 0 512 512" style="enable-background:new 0 0 512 512;" xml:space="preserve">
<g>
	<g>
		<path d="M256,0C114.615,0,0,114.615,0,256s114.615,256,256,256s256-114.615,256-256S397.385,0,256,0z M128.383,339.413    L98.936,368.86C76.029,337.071,62.514,298.087,62.514,256c0-106.689,86.797-193.486,193.486-193.486    c42.086,0,81.072,13.515,112.86,36.422L303.897,163.9h-43.662v-15.543c0-14.753-12.003-26.756-26.756-26.756h-38.185    c-14.753,0-26.756,12.002-26.756,26.756V163.9h-13.593c-19.299,0-35,15.701-35,35v117.759    C119.945,325.341,123.13,333.289,128.383,339.413z M310.018,246.187c0.812,3.738,1.251,7.614,1.251,11.592    c0,30.096-24.484,54.58-54.58,54.58c-3.978,0-7.854-0.439-11.592-1.251L310.018,246.187z M202.623,265.173    c-0.33-2.42-0.515-4.885-0.515-7.394c0-30.095,24.484-54.58,54.58-54.58c2.509,0,4.974,0.185,7.394,0.514L202.623,265.173z     M184.905,219.552c0,8.284-6.716,15-15,15h-9.697c-8.284,0-15-6.716-15-15s6.716-15,15-15h9.697    C178.189,204.552,184.905,211.268,184.905,219.552z M256,449.486c-42.086,0-81.072-13.515-112.86-36.422l61.406-61.406h153.886    c19.299,0,35-15.701,35-35V198.899c0-9.935-4.168-18.91-10.84-25.287l30.473-30.472c22.906,31.789,36.421,70.774,36.421,112.86    C449.486,362.689,362.689,449.486,256,449.486z"/>
	</g>
</g>
<g>
</g>
<g>
</g>
<g>
</g>
<g>
</g>
<g>
</g>
<g>
</g>
<g>
</g>
<g>
</g>
<g>
</g>
<g>
</g>
<g>
</g>
<g>
</g>
<g>
</g>
<g>
</g>
<g>
</g>
</svg>